<svg xmlns="http://www.w3.org/2000/svg" version="1.1" xmlns:xlink="http://www.w3.org/1999/xlink" xmlns:svgjs="http://svgjs.dev/svgjs" width="1500" height="1500" viewBox="0 0 1500 1500"><rect width="1500" height="1500" fill="#000000"></rect><g transform="matrix(0.6666666666666666,0,0,0.6666666666666666,249.39393939393938,551.0495171148725)"><svg viewBox="0 0 396 158" data-background-color="#ffffff" preserveAspectRatio="xMidYMid meet" height="598" width="1500" xmlns="http://www.w3.org/2000/svg" xmlns:xlink="http://www.w3.org/1999/xlink"><g id="tight-bounds" transform="matrix(1,0,0,1,0.2400000000000091,-0.15173169937251885)"><svg viewBox="0 0 395.52 158.30310894383248" height="158.30310894383248" width="395.52"><g><svg viewBox="0 0 395.52 158.30310894383248" height="158.30310894383248" width="395.52"><g><svg viewBox="0 0 395.52 158.30310894383248" height="158.30310894383248" width="395.52"><g id="textblocktransform"><svg viewBox="0 0 395.52 158.30310894383248" height="158.30310894383248" width="395.52" id="textblock"><g><svg viewBox="0 0 395.52 67.11430844012372" height="67.11430844012372" width="395.52"><g transform="matrix(1,0,0,1,0,0)"><svg width="395.52" viewBox="3.5 -28.75 226.28 38.4" height="67.11430844012372" data-palette-color="#e8772e"><path d="M3.5-14.75L3.5-25.3 9.2-28.75 19.5-28.75 19.5-22.85 9.6-22.85 9.6-17.2 19.5-17.2 19.5-11.35 9.2-11.35 3.5-14.75ZM37.95-3.4L37.95-13.75 32.05-17.2 21.75-17.2 21.75-11.35 31.65-11.35 31.65-5.65 21.95-5.65 21.95 0 32.05 0 37.95-3.4ZM3.5-9.1L9.8-9.1 9.8-5.65 19.5-5.65 19.5 0 9.35 0 3.5-3.4 3.5-9.1ZM31.65-19.45L37.95-19.45 37.95-25.3 32.05-28.75 21.75-28.75 21.75-22.85 31.65-22.85 31.65-19.45ZM72.7-18.55L72.7-6.4 67.1-3 59.2-3 59.2-7 66.45-7 66.45-17.3 58.9-17.3 58.9-22 67.1-22 72.7-18.55ZM42.85 9.65L42.85-22 56.7-22 56.7-17.3 49.2-17.3 49.2-7 56.45-7 56.45-3 49.2-3 49.2 9.65 42.85 9.65ZM77.6-3.5L77.6-18.55 83.45-22 91.35-22 91.35-17.3 83.85-17.3 83.85-5.4 91.35-5.4 91.35-0.05 83.45-0.05 77.6-3.5ZM106.95-3.5L106.95-18.55 101.1-22 93.15-22 93.15-17.3 100.7-17.3 100.7-5.4 93.15-5.4 93.15-0.05 101.1-0.05 106.95-3.5ZM115.94 0L115.94-21.85 122.19-21.85 122.19-19.7 129.69-21.85 129.69-17.2 122.19-17.2 122.19 0 115.94 0ZM138.44-15.05L138.44-19.1 131.94-21.85 131.94-15.05 138.44-15.05ZM152.44-17.2L152.44-21.85 159.94-21.85 159.94-17.2 152.44-17.2ZM159.94-7.5L166.24-7.5 166.24-3.45 160.54 0 152.44 0 152.44-5.25 159.94-5.25 159.94-7.5ZM139.44-19.35L150.19-25.3 150.19-5.25 150.19 0 143.94-3.45 143.94-17.2 139.44-17.15 139.44-19.35ZM171.74-22L178.04-22 178.04 0.05 171.74 0.05 171.74-22ZM177.94-28.7L177.94-24.05 171.74-24.05 171.74-28.7 177.94-28.7ZM187.04 0.05L187.04-28.75 193.34-28.75 193.34-13.1 196.14-13.1 196.14-9.45 193.34-9.45 193.34 0.05 187.04 0.05ZM216.89-3.4L204.34-11.5 215.79-19.05 211.64-22 198.64-13.1 198.64-9.45 211.24 0.05 216.89-3.4ZM223.38 0.05L223.38-28.75 229.78-28.75 229.78 0.05 223.38 0.05Z" opacity="1" transform="matrix(1,0,0,1,0,0)" fill="#ffffff" class="wordmark-text-0" data-fill-palette-color="primary" id="text-0"></path></svg></g></svg></g><g transform="matrix(1,0,0,1,0,98.80246339874502)"><svg viewBox="0 0 395.52 59.50064554508746" height="59.50064554508746" width="395.52"><path d="M395.52 0l-9.917 29.75 9.917 29.751h-395.52l9.917-29.751-9.917-29.75z" data-fill-palette-color="tertiary" opacity="1" fill="#ffffff"></path><g transform="matrix(1,0,0,1,75.54432,15.844077479310648)"><svg width="244.43135999999998" viewBox="2.6 -36 398.96 45.4" height="27.81249058646616" data-palette-color="#ffffff"><path d="M15.7-34.8Q21.35-34.8 24.58-32.3 27.8-29.8 27.8-25.2L27.8-25.2 27.8-24.6 22.9-24.6 22.9-25.35Q22.9-27.75 20.95-29.05 19-30.35 15.8-30.35L15.8-30.35Q12.25-30.35 10.28-29.18 8.3-28 8.3-25.8L8.3-25.8Q8.3-24.15 9.43-23.1 10.55-22.05 12.23-21.45 13.9-20.85 16.85-20.1L16.85-20.1Q20.65-19.1 23-18.15 25.35-17.2 27.03-15.3 28.7-13.4 28.7-10.25L28.7-10.25Q28.7-4.65 25.28-2.08 21.85 0.5 15.65 0.5L15.65 0.5Q9.45 0.5 6.03-2.13 2.6-4.75 2.6-9.75L2.6-9.75 2.65-10.75 7.55-10.75 7.5-9.7Q7.5-6.8 9.68-5.38 11.85-3.95 15.7-3.95L15.7-3.95Q19.45-3.95 21.63-5.33 23.8-6.7 23.8-9.1L23.8-9.1Q23.8-11 22.63-12.18 21.45-13.35 19.68-14 17.9-14.65 14.85-15.45L14.85-15.45Q11.1-16.45 8.85-17.35 6.6-18.25 5-20.13 3.4-22 3.4-25.05L3.4-25.05Q3.4-30 6.75-32.4 10.1-34.8 15.7-34.8L15.7-34.8ZM47.55-26.05Q52.4-26.05 55.15-22.5 57.9-18.95 57.9-12.75L57.9-12.75 57.9-12.2Q57.9-6.3 55.17-2.9 52.45 0.5 47.55 0.5L47.55 0.5Q42.85 0.5 40.2-3.25L40.2-3.25 40.2 9.05 35.5 9.05 35.5-25.55 39-25.55Q39.35-23.95 39.65-22.05L39.65-22.05Q42.5-26.05 47.55-26.05L47.55-26.05ZM46.7-22.3Q43.3-22.3 41.72-19.95 40.15-17.6 40.15-12.8L40.15-12.8Q40.15-7.9 41.77-5.58 43.4-3.25 46.7-3.25L46.7-3.25Q50-3.25 51.6-5.6 53.2-7.95 53.2-12.8L53.2-12.8Q53.2-17.7 51.57-20 49.95-22.3 46.7-22.3L46.7-22.3ZM74.84-26.05Q80.2-26.05 83.4-22.75 86.59-19.45 86.59-13.7L86.59-13.7 86.59-11.85Q86.59-6.1 83.45-2.8 80.3 0.5 74.84 0.5L74.84 0.5Q69.4 0.5 66.25-2.8 63.1-6.1 63.1-11.85L63.1-11.85 63.1-13.7Q63.1-19.45 66.3-22.75 69.5-26.05 74.84-26.05L74.84-26.05ZM74.84-22.3Q71.5-22.3 69.65-20 67.8-17.7 67.8-13.25L67.8-13.25 67.8-12.3Q67.8-7.95 69.62-5.6 71.45-3.25 74.84-3.25L74.84-3.25Q78.15-3.25 80.02-5.58 81.9-7.9 81.9-12.3L81.9-12.3 81.9-13.25Q81.9-17.6 80.07-19.95 78.25-22.3 74.84-22.3L74.84-22.3ZM104.84-26.05Q108.39-26.05 110.39-23.78 112.39-21.5 112.39-18.05L112.39-18.05 112.24-16.15 108.09-16.15 108.09-17.25Q108.09-18.75 107.34-19.9 106.59-21.05 105.44-21.68 104.29-22.3 103.14-22.3L103.14-22.3Q100.74-22.3 99.39-20.4 98.04-18.5 98.04-15.25L98.04-15.25 98.04 0 93.34 0 93.34-25.55 96.69-25.55 97.39-21.75Q97.69-22.75 98.74-23.75 99.79-24.75 101.37-25.4 102.94-26.05 104.84-26.05L104.84-26.05ZM123.34-33.7L123.34-25.55 129.29-25.55 129.29-21.8 123.34-21.8 123.34-6.55Q123.34-4.75 124.04-3.95 124.74-3.15 126.19-3.15L126.19-3.15Q127.49-3.15 129.29-3.9L129.29-3.9 129.29-0.4Q127.49 0.5 124.64 0.5L124.64 0.5Q121.69 0.5 120.17-1.25 118.64-3 118.64-6.8L118.64-6.8 118.64-21.8 115.84-21.8 115.84-25.55 118.79-25.55 120.39-33.7 123.34-33.7ZM144.89-26.05Q147.74-26.05 149.96-25.15 152.19-24.25 153.41-22.65 154.64-21.05 154.64-19.1L154.64-19.1 154.59-18.2 149.94-18.2 149.94-18.65Q149.94-22.3 144.29-22.3L144.29-22.3Q138.69-22.3 138.69-18.95L138.69-18.95Q138.69-17.4 140.29-16.68 141.89-15.95 145.19-15.3L145.19-15.3Q148.34-14.65 150.36-13.95 152.39-13.25 153.81-11.75 155.24-10.25 155.24-7.7L155.24-7.7Q155.24-3.6 152.44-1.55 149.64 0.5 144.39 0.5L144.39 0.5 143.64 0.5Q140.49 0.5 138.14-0.48 135.79-1.45 134.51-3.13 133.24-4.8 133.29-6.9L133.29-6.9 133.29-8 137.94-8 137.94-7.5Q137.94-3.25 145.09-3.25L145.09-3.25Q147.19-3.25 148.86-4.2 150.54-5.15 150.54-6.8L150.54-6.8Q150.54-8.2 149.61-9 148.69-9.8 147.34-10.2 145.99-10.6 143.59-11L143.59-11Q140.49-11.6 138.59-12.23 136.69-12.85 135.34-14.35 133.99-15.85 133.99-18.45L133.99-18.45Q133.99-22 136.79-24.03 139.59-26.05 144.44-26.05L144.44-26.05 144.89-26.05ZM195.03-34.3L199.93-34.3 199.93 0 195.03 0 195.03-15.3 179.38-15.3 179.38 0 174.48 0 174.48-34.3 179.38-34.3 179.38-19.75 195.03-19.75 195.03-34.3ZM208.58-36L213.48-36 213.48-31.65 208.58-31.65 208.58-36ZM208.68-25.55L213.38-25.55 213.38 0 208.68 0 208.68-25.55ZM245.08-30.15Q245.08-27.6 243.73-25.88 242.38-24.15 239.98-23.65L239.98-23.65 239.88-23.5Q242.38-21.3 242.38-18L242.38-18Q242.38-14.4 239.68-12.2 236.98-10 232.33-10L232.33-10 228.93-10Q227.43-10 226.43-9.22 225.43-8.45 225.43-7.25L225.43-7.25Q225.43-6.05 226.38-5.35 227.33-4.65 228.93-4.65L228.93-4.65 238.58-4.65Q241.53-4.65 243.3-2.8 245.08-0.95 245.08 1.9L245.08 1.9Q245.08 5.3 242.5 7.35 239.93 9.4 235.58 9.4L235.58 9.4 225.53 9.4Q223.83 9.4 222.4 8.5 220.98 7.6 220.15 6.23 219.33 4.85 219.33 3.4L219.33 3.4Q219.33 1.3 220.35-0.25 221.38-1.8 223.08-2.55L223.08-2.55Q220.78-3.95 220.78-6.7L220.78-6.7Q220.78-8.5 221.83-9.8 222.88-11.1 224.78-11.75L224.78-11.75Q221.43-13.6 221.43-18L221.43-18Q221.43-21.7 224.15-23.88 226.88-26.05 231.73-26.05L231.73-26.05 231.93-26.05Q234.73-26.05 237.03-25.2L237.03-25.2Q240.58-26.95 241.08-30.15L241.08-30.15 245.08-30.15ZM231.88-22.3Q229.23-22.3 227.65-21.28 226.08-20.25 226.08-18L226.08-18Q226.08-15.75 227.65-14.75 229.23-13.75 231.88-13.75L231.88-13.75Q234.53-13.75 236.13-14.75 237.73-15.75 237.73-18L237.73-18Q237.73-20.25 236.13-21.28 234.53-22.3 231.88-22.3L231.88-22.3ZM237.18-0.15L226.88-0.15Q225.68-0.15 224.83 0.7 223.98 1.55 223.98 2.75L223.98 2.75Q223.98 3.95 224.83 4.8 225.68 5.65 226.88 5.65L226.88 5.65 236.53 5.65Q238.13 5.65 239.28 4.73 240.43 3.8 240.43 2.6L240.43 2.6Q240.43 1.35 239.58 0.6 238.73-0.15 237.18-0.15L237.18-0.15ZM254.78-36L254.78-22.35Q257.93-26.05 262.68-26.05L262.68-26.05Q266.88-26.05 269.28-23.8 271.68-21.55 271.68-17.2L271.68-17.2 271.68 0 266.98 0 266.98-16.35Q266.98-22.3 261.57-22.3L261.57-22.3Q259.78-22.3 258.23-21.35 256.68-20.4 255.73-18.78 254.78-17.15 254.78-15.2L254.78-15.2 254.78 0 250.08 0 250.08-36 254.78-36ZM279.92-36L284.62-36 284.62 0 279.92 0 279.92-36ZM293.02-36L297.92-36 297.92-31.65 293.02-31.65 293.02-36ZM293.12-25.55L297.82-25.55 297.82 0 293.12 0 293.12-25.55ZM329.52-30.15Q329.52-27.6 328.17-25.88 326.82-24.15 324.42-23.65L324.42-23.65 324.32-23.5Q326.82-21.3 326.82-18L326.82-18Q326.82-14.4 324.12-12.2 321.42-10 316.77-10L316.77-10 313.37-10Q311.87-10 310.87-9.22 309.87-8.45 309.87-7.25L309.87-7.25Q309.87-6.05 310.82-5.35 311.77-4.65 313.37-4.65L313.37-4.65 323.02-4.65Q325.97-4.65 327.74-2.8 329.52-0.95 329.52 1.9L329.52 1.9Q329.52 5.3 326.94 7.35 324.37 9.4 320.02 9.4L320.02 9.4 309.97 9.4Q308.27 9.4 306.84 8.5 305.42 7.6 304.59 6.23 303.77 4.85 303.77 3.4L303.77 3.4Q303.77 1.3 304.79-0.25 305.82-1.8 307.52-2.55L307.52-2.55Q305.22-3.95 305.22-6.7L305.22-6.7Q305.22-8.5 306.27-9.8 307.32-11.1 309.22-11.75L309.22-11.75Q305.87-13.6 305.87-18L305.87-18Q305.87-21.7 308.59-23.88 311.32-26.05 316.17-26.05L316.17-26.05 316.37-26.05Q319.17-26.05 321.47-25.2L321.47-25.2Q325.02-26.95 325.52-30.15L325.52-30.15 329.52-30.15ZM316.32-22.3Q313.67-22.3 312.09-21.28 310.52-20.25 310.52-18L310.52-18Q310.52-15.75 312.09-14.75 313.67-13.75 316.32-13.75L316.32-13.75Q318.97-13.75 320.57-14.75 322.17-15.75 322.17-18L322.17-18Q322.17-20.25 320.57-21.28 318.97-22.3 316.32-22.3L316.32-22.3ZM321.62-0.15L311.32-0.15Q310.12-0.15 309.27 0.7 308.42 1.55 308.42 2.75L308.42 2.75Q308.42 3.95 309.27 4.8 310.12 5.65 311.32 5.65L311.32 5.65 320.97 5.65Q322.57 5.65 323.72 4.73 324.87 3.8 324.87 2.6L324.87 2.6Q324.87 1.35 324.02 0.6 323.17-0.15 321.62-0.15L321.62-0.15ZM339.21-36L339.21-22.35Q342.36-26.05 347.11-26.05L347.11-26.05Q351.31-26.05 353.71-23.8 356.11-21.55 356.11-17.2L356.11-17.2 356.11 0 351.41 0 351.41-16.35Q351.41-22.3 346.01-22.3L346.01-22.3Q344.21-22.3 342.66-21.35 341.11-20.4 340.16-18.78 339.21-17.15 339.21-15.2L339.21-15.2 339.21 0 334.51 0 334.51-36 339.21-36ZM369.66-33.7L369.66-25.55 375.61-25.55 375.61-21.8 369.66-21.8 369.66-6.55Q369.66-4.75 370.36-3.95 371.06-3.15 372.51-3.15L372.51-3.15Q373.81-3.15 375.61-3.9L375.61-3.9 375.61-0.4Q373.81 0.5 370.96 0.5L370.96 0.5Q368.01 0.5 366.49-1.25 364.96-3 364.96-6.8L364.96-6.8 364.96-21.8 362.16-21.8 362.16-25.55 365.11-25.55 366.71-33.7 369.66-33.7ZM391.21-26.05Q394.06-26.05 396.28-25.15 398.51-24.25 399.73-22.65 400.96-21.05 400.96-19.1L400.96-19.1 400.91-18.2 396.26-18.2 396.26-18.65Q396.26-22.3 390.61-22.3L390.61-22.3Q385.01-22.3 385.01-18.95L385.01-18.95Q385.01-17.4 386.61-16.68 388.21-15.95 391.51-15.3L391.51-15.3Q394.66-14.65 396.68-13.95 398.71-13.25 400.13-11.75 401.56-10.25 401.56-7.7L401.56-7.7Q401.56-3.6 398.76-1.55 395.96 0.5 390.71 0.5L390.71 0.5 389.96 0.5Q386.81 0.5 384.46-0.48 382.11-1.45 380.83-3.13 379.56-4.8 379.61-6.9L379.61-6.9 379.61-8 384.26-8 384.26-7.5Q384.26-3.25 391.41-3.25L391.41-3.25Q393.51-3.25 395.18-4.2 396.86-5.15 396.86-6.8L396.86-6.8Q396.86-8.2 395.93-9 395.01-9.8 393.66-10.2 392.31-10.6 389.91-11L389.91-11Q386.81-11.6 384.91-12.23 383.01-12.85 381.66-14.35 380.31-15.85 380.31-18.45L380.31-18.45Q380.31-22 383.11-24.03 385.91-26.05 390.76-26.05L390.76-26.05 391.21-26.05Z" opacity="1" transform="matrix(1,0,0,1,0,0)" fill="#000000" class="slogan-text-1" data-fill-palette-color="quaternary" id="text-1"></path></svg></g></svg></g></svg></g></svg></g></svg></g><defs></defs></svg><rect width="395.52" height="158.30310894383248" fill="none" stroke="none" visibility="hidden"></rect></g></svg></g></svg>